<svg xmlns="http://www.w3.org/2000/svg" xml:space="preserve" style="fill-rule:evenodd;clip-rule:evenodd;stroke-linecap:round;stroke-linejoin:round;stroke-miterlimit:1" viewBox="0 0 347 347"><path d="M96 173H15v117M15 290h76l-24-24 24 24-24 24 24-24H15Z" style="fill:none;stroke:#3b972e;stroke-width:16.67px"/><path d="M245 56h94v117M339 173h-88l24 24-24-24 24-24-24 24h88Z" style="fill:none;stroke:#945bb0;stroke-width:16.67px"/><path d="M8 56h81L65 32l24 24-24 24 24-24H8Z" style="fill:none;stroke:#c93d39;stroke-width:16.67px"/><path d="M232 29c0-6-5-11-11-11H119c-6 0-11 5-11 11v54c0 6 5 11 11 11h102c6 0 11-5 11-11V29Z" style="fill:#d66661"/><path d="M245 29c0-13-11-24-24-24H119c-13 0-23 11-23 24v54c0 13 10 24 23 24h102c13 0 24-11 24-24V29Zm-13 0c0-6-5-11-11-11H119c-6 0-11 5-11 11v54c0 6 5 11 11 11h102c6 0 11-5 11-11V29Z" style="fill:#c93d39"/><path d="M132 40h7M164 40h45M132 72h77" style="fill:none;stroke:#c93d39;stroke-width:16.67px;stroke-linejoin:miter"/><path d="M232 146c0-6-5-11-11-11H119c-6 0-11 5-11 11v54c0 6 5 11 11 11h102c6 0 11-5 11-11v-54Z" style="fill:#aa7dc0"/><path d="M245 146c0-13-11-24-24-24H119c-13 0-23 11-23 24v54c0 13 10 24 23 24h102c13 0 24-11 24-24v-54Zm-13 0c0-6-5-11-11-11H119c-6 0-11 5-11 11v54c0 6 5 11 11 11h102c6 0 11-5 11-11v-54Z" style="fill:#945bb0"/><path d="M132 157h7M164 157h45M132 189h77" style="fill:none;stroke:#945bb0;stroke-width:16.67px;stroke-linejoin:miter"/><path d="M232 263c0-6-5-11-11-11H119c-6 0-11 5-11 11v54c0 7 5 12 11 12h102c6 0 11-5 11-12v-54Z" style="fill:#6bab5b"/><path d="M245 263c0-13-11-24-24-24H119c-13 0-23 11-23 24v54c0 13 10 24 23 24h102c13 0 24-11 24-24v-54Zm-13 0c0-6-5-11-11-11H119c-6 0-11 5-11 11v54c0 7 5 12 11 12h102c6 0 11-5 11-12v-54Z" style="fill:#3b972e"/><path d="m141 283 21 31 38-48" style="fill:none;stroke:#3b972e;stroke-width:16.67px"/></svg>